<svg data-v-423bf9ae="" xmlns="http://www.w3.org/2000/svg" viewBox="0 0 330.42502936228635 60" class="font"><!----><!----><!----><g data-v-423bf9ae="" id="9f176ef6-a50f-4a0c-87db-693e811d22a8" fill="black" transform="matrix(4.4742726633647205,0,0,4.4742726633647205,-0.9843352842796378,-16.91275077792725)"><path d="M6.05 11.31L6.05 11.31L6.05 11.31Q6.05 12.66 5.03 13.44L5.03 13.44L5.03 13.44Q4.00 14.22 2.55 14.22L2.55 14.22L2.55 14.22Q1.57 14.22 0.93 13.73L0.93 13.73L0.93 13.73Q0.29 13.23 0.22 12.88L0.22 12.88L0.22 12.88Q0.38 12.42 0.88 11.84L0.88 11.84L0.88 11.84Q1.39 11.27 1.79 11.14L1.79 11.14L1.79 11.14Q2.51 11.61 3.12 13.20L3.12 13.20L3.12 13.20Q4.03 13.17 4.03 12.21L4.03 12.21L4.03 12.21Q4.03 11.68 3.60 10.90L3.60 10.90L3.60 10.90Q3.18 10.12 2.67 9.44L2.67 9.44L2.67 9.44Q2.17 8.76 1.74 7.92L1.74 7.92L1.74 7.92Q1.32 7.07 1.32 6.41L1.32 6.41L1.32 6.41Q1.32 5.35 2.18 4.73L2.18 4.73L2.18 4.73Q3.04 4.12 4.12 4.12L4.12 4.12L4.12 4.12Q5.19 4.12 5.79 4.58L5.79 4.58L5.79 4.58Q6.38 5.04 6.38 5.63L6.38 5.63L6.38 5.63Q6.38 6.22 5.94 6.83L5.94 6.83L5.94 6.83Q5.49 7.45 5.04 7.81L5.04 7.81L4.59 8.18L4.59 8.18Q4.76 8.40 5.00 8.75L5.00 8.75L5.00 8.75Q5.24 9.10 5.64 9.94L5.64 9.94L5.64 9.94Q6.05 10.78 6.05 11.31ZM4.98 6.72L4.98 6.72L4.98 6.72Q5.17 6.54 5.32 6.28L5.32 6.28L5.32 6.28Q5.47 6.02 5.47 5.73L5.47 5.73L5.47 5.73Q5.47 5.45 5.14 5.25L5.14 5.25L5.14 5.25Q4.80 5.05 4.33 5.05L4.33 5.05L4.33 5.05Q3.86 5.05 3.55 5.27L3.55 5.27L3.55 5.27Q3.23 5.49 3.23 5.79L3.23 5.79L3.23 5.79Q3.23 6.09 3.44 6.49L3.44 6.49L3.44 6.49Q3.64 6.89 3.84 7.15L3.84 7.15L4.05 7.42L4.05 7.42Q4.19 7.35 4.49 7.13L4.49 7.13L4.49 7.13Q4.79 6.90 4.98 6.72ZM10.12 8.55L10.12 8.55L10.12 8.55Q9.56 8.55 9.23 9.49L9.23 9.49L9.23 9.49Q8.89 10.42 8.89 11.48L8.89 11.48L8.89 11.48Q8.89 13.16 9.93 13.16L9.93 13.16L9.93 13.16Q10.26 13.16 10.64 13.00L10.64 13.00L10.64 13.00Q11.02 12.84 11.24 12.68L11.24 12.68L11.45 12.52L11.77 12.95L11.77 12.95Q11.66 13.10 11.33 13.36L11.33 13.36L11.33 13.36Q10.99 13.61 10.70 13.78L10.70 13.78L10.70 13.78Q10.40 13.94 9.94 14.08L9.94 14.08L9.94 14.08Q9.48 14.22 9.03 14.22L9.03 14.22L9.03 14.22Q7.94 14.22 7.39 13.51L7.39 13.51L7.39 13.51Q6.85 12.80 6.85 11.59L6.85 11.59L6.85 11.59Q6.85 9.93 7.76 8.89L7.76 8.89L7.76 8.89Q8.68 7.85 10.12 7.85L10.12 7.85L10.12 7.85Q11.06 7.85 11.61 8.28L11.61 8.28L11.61 8.28Q12.17 8.71 12.17 9.33L12.17 9.33L12.17 9.33Q12.17 9.95 11.77 10.40L11.77 10.40L11.77 10.40Q11.42 10.40 10.96 10.25L10.96 10.25L10.96 10.25Q10.50 10.09 10.26 9.87L10.26 9.87L10.47 8.64L10.47 8.64Q10.35 8.55 10.12 8.55ZM12.57 13.00L12.57 13.00L12.57 13.00Q12.57 12.40 12.94 10.96L12.94 10.96L12.94 10.96Q13.30 9.51 13.30 9.18L13.30 9.18L13.30 9.18Q13.30 8.85 12.80 8.30L12.80 8.30L12.81 8.12L12.81 8.12Q13.76 7.92 15.32 7.92L15.32 7.92L15.32 7.92Q15.39 8.11 15.39 8.58L15.39 8.58L15.39 8.58Q15.39 9.06 14.99 10.61L14.99 10.61L14.99 10.61Q14.60 12.17 14.60 12.54L14.60 12.54L14.60 12.54Q14.60 12.92 14.88 12.92L14.88 12.92L14.88 12.92Q15.29 12.92 15.82 12.63L15.82 12.63L15.82 12.63Q15.88 12.29 16.10 11.34L16.10 11.34L16.10 11.34Q16.60 9.10 16.60 8.13L16.60 8.13L16.60 8.13Q17.09 7.94 18.37 7.94L18.37 7.94L18.63 7.94L18.63 7.94Q18.63 8.60 18.24 10.51L18.24 10.51L18.24 10.51Q17.85 12.42 17.85 12.75L17.85 12.75L17.85 12.75Q17.85 13.08 17.99 13.08L17.99 13.08L17.99 13.08Q18.07 13.08 18.79 12.74L18.79 12.74L19.05 13.19L19.05 13.19Q17.81 14.22 16.87 14.22L16.87 14.22L16.87 14.22Q16.42 14.22 16.11 13.97L16.11 13.97L16.11 13.97Q15.79 13.72 15.75 13.31L15.75 13.31L15.75 13.31Q14.62 14.24 13.69 14.24L13.69 14.24L13.69 14.24Q13.20 14.24 12.89 13.92L12.89 13.92L12.89 13.92Q12.57 13.59 12.57 13.00ZM20.53 14.22L20.53 14.22L20.53 14.22Q20.05 14.22 19.73 13.90L19.73 13.90L19.73 13.90Q19.42 13.58 19.42 13.00L19.42 13.00L19.42 13.00Q19.42 12.42 20.11 9.29L20.11 9.29L20.11 9.29Q20.80 6.16 20.80 4.77L20.80 4.77L20.72 4.16L20.72 4.16Q21.81 3.78 22.76 3.78L22.76 3.78L22.76 3.78Q22.90 3.98 22.90 4.47L22.90 4.47L22.90 4.47Q22.90 5.59 22.20 8.80L22.20 8.80L22.20 8.80Q21.49 12.01 21.49 12.54L21.49 12.54L21.49 12.54Q21.49 13.06 21.62 13.06L21.62 13.06L22.60 12.71L22.85 13.20L22.85 13.20Q22.37 13.58 21.69 13.90L21.69 13.90L21.69 13.90Q21.01 14.22 20.53 14.22ZM22.76 17.19L22.76 17.19L22.76 17.19Q22.69 17.02 22.69 16.45L22.69 16.45L22.69 16.45Q22.69 15.88 23.24 13.36L23.24 13.36L23.24 13.36Q23.79 10.85 23.79 9.49L23.79 9.49L23.79 9.49Q23.79 9.23 23.66 8.93L23.66 8.93L23.66 8.93Q23.53 8.62 23.39 8.46L23.39 8.46L23.27 8.30L23.28 8.12L23.28 8.12Q23.94 7.91 25.61 7.91L25.61 7.91L25.61 7.91Q25.76 8.20 25.80 8.74L25.80 8.74L25.80 8.74Q26.88 7.85 27.60 7.85L27.60 7.85L27.60 7.85Q28.32 7.85 28.76 8.46L28.76 8.46L28.76 8.46Q29.20 9.06 29.20 10.22L29.20 10.22L29.20 10.22Q29.20 12.25 28.46 13.24L28.46 13.24L28.46 13.24Q27.72 14.22 26.59 14.22L26.59 14.22L26.59 14.22Q26.00 14.22 25.61 14.06L25.61 14.06L25.47 14.00L25.56 13.45L25.56 13.45Q25.69 13.48 25.86 13.48L25.86 13.48L25.86 13.48Q26.22 13.48 26.50 13.15L26.50 13.15L26.50 13.15Q26.77 12.81 26.91 12.29L26.91 12.29L26.91 12.29Q27.19 11.26 27.19 10.37L27.19 10.37L27.19 10.37Q27.19 9.11 26.67 9.11L26.67 9.11L26.67 9.11Q26.26 9.11 25.80 9.44L25.80 9.44L25.80 9.44Q25.75 10.42 25.23 12.87L25.23 12.87L25.23 12.87Q24.71 15.32 24.71 16.81L24.71 16.81L24.71 16.81Q23.95 17.12 22.76 17.19ZM32.87 8.02L34.23 8.02L34.23 8.02Q34.20 8.37 33.99 8.83L33.99 8.83L33.99 8.83Q33.46 8.78 32.98 8.78L32.98 8.78L32.73 8.78L32.73 8.78Q32.09 11.90 32.09 12.67L32.09 12.67L32.09 12.67Q32.09 13.08 32.26 13.08L32.26 13.08L32.26 13.08Q32.44 13.08 33.19 12.73L33.19 12.73L33.45 13.19L33.45 13.19Q32.20 14.22 31.14 14.22L31.14 14.22L31.14 14.22Q30.65 14.22 30.33 13.92L30.33 13.92L30.33 13.92Q30.02 13.61 30.02 13.10L30.02 13.10L30.02 13.10Q30.02 12.59 30.14 11.94L30.14 11.94L30.14 11.94Q30.25 11.30 30.46 10.37L30.46 10.37L30.46 10.37Q30.67 9.44 30.77 8.86L30.77 8.86L30.77 8.86Q30.25 8.90 30.00 8.95L30.00 8.95L30.00 8.95Q29.97 8.78 29.97 8.49L29.97 8.49L29.97 8.49Q29.97 8.20 30.02 8.02L30.02 8.02L30.90 8.02L30.90 8.02Q31.01 7.27 31.01 6.59L31.01 6.59L31.00 6.16L31.00 6.12L31.00 6.12Q32.09 5.74 33.05 5.74L33.05 5.74L33.05 5.74Q33.11 6.02 33.11 6.44L33.11 6.44L33.11 6.44Q33.11 6.86 32.87 8.02L32.87 8.02ZM33.92 11.63L33.92 11.63L33.92 11.63Q33.92 9.88 34.98 8.87L34.98 8.87L34.98 8.87Q36.04 7.85 37.38 7.85L37.38 7.85L37.38 7.85Q38.21 7.85 38.74 8.26L38.74 8.26L38.74 8.26Q39.27 8.67 39.27 9.35L39.27 9.35L39.27 9.35Q39.27 10.02 38.93 10.49L38.93 10.49L38.93 10.49Q38.58 10.95 38.09 11.20L38.09 11.20L38.09 11.20Q37.10 11.69 36.27 11.82L36.27 11.82L35.94 11.86L35.94 11.86Q36.04 13.17 37.02 13.17L37.02 13.17L37.02 13.17Q37.35 13.17 37.73 13.01L37.73 13.01L37.73 13.01Q38.11 12.84 38.32 12.67L38.32 12.67L38.53 12.50L38.86 12.95L38.86 12.95Q38.75 13.10 38.42 13.36L38.42 13.36L38.42 13.36Q38.08 13.61 37.79 13.78L37.79 13.78L37.79 13.78Q36.97 14.22 36.01 14.22L36.01 14.22L36.01 14.22Q35.04 14.22 34.48 13.54L34.48 13.54L34.48 13.54Q33.92 12.85 33.92 11.63ZM35.92 11.17L35.92 11.17Q36.64 11.05 37.06 10.57L37.06 10.57L37.06 10.57Q37.48 10.09 37.48 9.34L37.48 9.34L37.48 9.34Q37.48 8.58 37.03 8.58L37.03 8.58L37.03 8.58Q36.50 8.58 36.21 9.49L36.21 9.49L36.21 9.49Q35.92 10.39 35.92 11.17L35.92 11.17ZM45.93 12.71L46.20 13.20L46.20 13.20Q45.01 14.22 44.11 14.22L44.11 14.22L44.11 14.22Q43.20 14.22 43.06 13.33L43.06 13.33L43.06 13.33Q42.64 13.75 42.13 13.99L42.13 13.99L42.13 13.99Q41.61 14.22 41.22 14.22L41.22 14.22L41.22 14.22Q40.54 14.22 40.07 13.64L40.07 13.64L40.07 13.64Q39.59 13.05 39.59 11.82L39.59 11.82L39.59 11.82Q39.59 9.97 40.38 8.91L40.38 8.91L40.38 8.91Q41.16 7.85 42.15 7.85L42.15 7.85L42.15 7.85Q43.13 7.85 43.81 8.30L43.81 8.30L43.81 8.30Q44.24 6.03 44.24 4.73L44.24 4.73L44.17 4.14L44.17 4.14Q45.22 3.78 46.23 3.78L46.23 3.78L46.23 3.78Q46.34 4.02 46.34 4.33L46.34 4.33L46.34 4.33Q46.34 5.35 45.72 8.48L45.72 8.48L45.72 8.48Q45.11 11.61 45.11 12.73L45.11 12.73L45.11 12.73Q45.11 13.06 45.26 13.06L45.26 13.06L45.26 13.06Q45.35 13.06 45.79 12.80L45.79 12.80L45.93 12.71ZM42.83 8.68L42.83 8.68L42.83 8.68Q42.34 8.68 41.98 9.65L41.98 9.65L41.98 9.65Q41.62 10.61 41.62 11.56L41.62 11.56L41.62 11.56Q41.62 12.50 41.75 12.77L41.75 12.77L41.75 12.77Q41.89 13.03 42.15 13.03L42.15 13.03L42.15 13.03Q42.62 13.03 43.06 12.66L43.06 12.66L43.06 12.66Q43.11 12.10 43.69 8.93L43.69 8.93L43.69 8.93Q43.22 8.68 42.83 8.68ZM48.08 4.12L48.08 4.12L52.75 4.27L54.07 4.24L54.07 4.24Q54.11 4.54 54.11 4.86L54.11 4.86L54.11 4.86Q54.11 5.18 54.00 5.32L54.00 5.32L54.00 5.32Q53.89 5.46 53.59 5.46L53.59 5.46L53.59 5.46Q53.56 5.46 51.62 5.28L51.62 5.28L51.62 5.28Q51.56 5.91 51.20 7.43L51.20 7.43L51.20 7.43Q50.83 8.96 50.50 10.70L50.50 10.70L50.50 10.70Q50.16 12.43 50.15 13.82L50.15 13.82L50.15 13.82Q49.60 14.10 47.91 14.10L47.91 14.10L47.81 14.10L47.81 14.10Q47.81 13.37 48.61 9.76L48.61 9.76L48.61 9.76Q49.41 6.15 49.41 5.36L49.41 5.36L49.41 5.36Q49.41 5.31 49.38 5.17L49.38 5.17L48.82 5.17L48.82 5.17Q47.67 5.17 47.05 5.52L47.05 5.52L47.05 5.52Q46.73 5.10 46.66 4.28L46.66 4.28L46.66 4.28Q47.14 4.12 48.08 4.12ZM57.75 8.26L57.75 8.26L57.75 8.26Q57.78 8.23 57.90 7.90L57.90 7.90L57.90 7.90Q58.56 7.90 59.67 8.29L59.67 8.29L59.67 8.29Q59.32 9.45 59.11 10.72L59.11 10.72L59.11 10.72Q58.90 11.98 58.90 12.52L58.90 12.52L58.90 12.52Q58.90 13.06 59.01 13.06L59.01 13.06L59.01 13.06Q59.09 13.06 59.63 12.80L59.63 12.80L59.79 12.71L60.05 13.20L60.05 13.20Q59.92 13.31 59.72 13.48L59.72 13.48L59.72 13.48Q59.51 13.65 58.95 13.94L58.95 13.94L58.95 13.94Q58.39 14.22 57.95 14.22L57.95 14.22L57.95 14.22Q57.08 14.22 56.94 13.44L56.94 13.44L56.94 13.44Q56.04 14.22 55.32 14.22L55.32 14.22L55.32 14.22Q54.60 14.22 54.10 13.66L54.10 13.66L54.10 13.66Q53.61 13.10 53.61 11.90L53.61 11.90L53.61 11.90Q53.61 10.02 54.38 8.94L54.38 8.94L54.38 8.94Q55.15 7.85 56.24 7.85L56.24 7.85L56.24 7.85Q57.02 7.85 57.75 8.26ZM56.15 13.03L56.15 13.03L56.15 13.03Q56.49 13.03 56.91 12.77L56.91 12.77L56.91 12.77Q57.01 10.79 57.57 8.86L57.57 8.86L57.57 8.86Q57.15 8.68 56.85 8.68L56.85 8.68L56.85 8.68Q56.35 8.68 55.99 9.67L55.99 9.67L55.99 9.67Q55.64 10.65 55.64 11.84L55.64 11.84L55.64 11.84Q55.64 13.03 56.15 13.03ZM61.38 14.22L61.38 14.22L61.38 14.22Q60.90 14.22 60.58 13.90L60.58 13.90L60.58 13.90Q60.27 13.58 60.27 13.00L60.27 13.00L60.27 13.00Q60.27 12.42 60.96 9.29L60.96 9.29L60.96 9.29Q61.66 6.16 61.66 4.77L61.66 4.77L61.57 4.16L61.57 4.16Q62.66 3.78 63.62 3.78L63.62 3.78L63.62 3.78Q63.76 3.98 63.76 4.47L63.76 4.47L63.76 4.47Q63.76 5.59 63.05 8.80L63.05 8.80L63.05 8.80Q62.34 12.01 62.34 12.54L62.34 12.54L62.34 12.54Q62.34 13.06 62.47 13.06L62.47 13.06L63.45 12.71L63.70 13.20L63.70 13.20Q63.22 13.58 62.54 13.90L62.54 13.90L62.54 13.90Q61.87 14.22 61.38 14.22ZM63.97 11.63L63.97 11.63L63.97 11.63Q63.97 9.88 65.02 8.87L65.02 8.87L65.02 8.87Q66.08 7.85 67.42 7.85L67.42 7.85L67.42 7.85Q68.25 7.85 68.78 8.26L68.78 8.26L68.78 8.26Q69.31 8.67 69.31 9.35L69.31 9.35L69.31 9.35Q69.31 10.02 68.97 10.49L68.97 10.49L68.97 10.49Q68.63 10.95 68.14 11.20L68.14 11.20L68.14 11.20Q67.14 11.69 66.32 11.82L66.32 11.82L65.98 11.86L65.98 11.86Q66.08 13.17 67.06 13.17L67.06 13.17L67.06 13.17Q67.40 13.17 67.77 13.01L67.77 13.01L67.77 13.01Q68.15 12.84 68.36 12.67L68.36 12.67L68.57 12.50L68.91 12.95L68.91 12.95Q68.80 13.10 68.46 13.36L68.46 13.36L68.46 13.36Q68.12 13.61 67.83 13.78L67.83 13.78L67.83 13.78Q67.02 14.22 66.05 14.22L66.05 14.22L66.05 14.22Q65.09 14.22 64.53 13.54L64.53 13.54L64.53 13.54Q63.97 12.85 63.97 11.63ZM65.97 11.17L65.97 11.17Q66.68 11.05 67.10 10.57L67.10 10.57L67.10 10.57Q67.52 10.09 67.52 9.34L67.52 9.34L67.52 9.34Q67.52 8.58 67.07 8.58L67.07 8.58L67.07 8.58Q66.54 8.58 66.25 9.49L66.25 9.49L66.25 9.49Q65.97 10.39 65.97 11.17L65.97 11.17ZM74.07 12.22L74.07 12.22L74.07 12.22Q74.07 13.10 73.30 13.66L73.30 13.66L73.30 13.66Q72.52 14.22 71.53 14.22L71.53 14.22L71.53 14.22Q70.53 14.22 69.95 13.80L69.95 13.80L69.95 13.80Q69.37 13.38 69.37 13.06L69.37 13.06L69.37 13.06Q69.37 12.87 69.86 12.43L69.86 12.43L69.86 12.43Q70.35 11.98 70.69 11.89L70.69 11.89L70.69 11.89Q71.39 12.40 71.83 13.52L71.83 13.52L71.83 13.52Q72.35 13.48 72.35 13.03L72.35 13.03L72.35 13.03Q72.35 12.39 71.22 11.21L71.22 11.21L71.22 11.21Q70.08 10.02 70.08 9.32L70.08 9.32L70.08 9.32Q70.08 8.62 70.71 8.24L70.71 8.24L70.71 8.24Q71.34 7.85 72.23 7.85L72.23 7.85L72.23 7.85Q73.12 7.85 73.57 8.17L73.57 8.17L73.57 8.17Q74.02 8.48 74.02 9.02L74.02 9.02L74.02 9.02Q74.02 9.56 73.16 10.51L73.16 10.51L73.16 10.51Q73.26 10.61 73.42 10.77L73.42 10.77L73.42 10.77Q73.57 10.93 73.82 11.38L73.82 11.38L73.82 11.38Q74.07 11.83 74.07 12.22ZM72.73 10.02L72.73 10.02Q73.32 9.52 73.32 9.03L73.32 9.03L73.32 9.03Q73.32 8.54 72.65 8.54L72.65 8.54L72.65 8.54Q72.32 8.54 72.11 8.67L72.11 8.67L72.11 8.67Q71.90 8.81 71.90 8.97L71.90 8.97L71.90 8.97Q71.90 9.28 72.52 9.84L72.52 9.84L72.73 10.02Z"></path></g><!----><!----></svg>